<mxfile host="65bd71144e">
    <diagram id="OyXcH52GNXkwLgwUdHda" name="Page-1">
        <mxGraphModel dx="559" dy="465" grid="0" gridSize="10" guides="1" tooltips="1" connect="1" arrows="1" fold="1" page="1" pageScale="1" pageWidth="827" pageHeight="1169" background="#ffffff" math="0" shadow="0">
            <root>
                <mxCell id="0"/>
                <mxCell id="1" parent="0"/>
                <mxCell id="2" value="Influenceur" style="shape=umlActor;verticalLabelPosition=bottom;verticalAlign=top;html=1;outlineConnect=0;strokeColor=#000000;fontColor=#000000;fillColor=#1BA2E3;" parent="1" vertex="1">
                    <mxGeometry x="77" y="280" width="43" height="80" as="geometry"/>
                </mxCell>
                <mxCell id="7" value="" style="rounded=0;whiteSpace=wrap;html=1;strokeColor=#000000;fontColor=#000000;fillColor=#1BA2E3;" parent="1" vertex="1">
                    <mxGeometry x="175" y="152" width="575" height="373" as="geometry"/>
                </mxCell>
                <mxCell id="9" value="System" style="rounded=0;whiteSpace=wrap;html=1;strokeColor=none;fontColor=#000000;fillColor=#1BA2E3;" parent="1" vertex="1">
                    <mxGeometry x="436.5" y="159" width="52" height="25" as="geometry"/>
                </mxCell>
                <mxCell id="10" value="" style="endArrow=none;html=1;fontColor=#000000;strokeColor=#000000;" parent="1" edge="1">
                    <mxGeometry width="50" height="50" relative="1" as="geometry">
                        <mxPoint x="115" y="319.44" as="sourcePoint"/>
                        <mxPoint x="247" y="319.44" as="targetPoint"/>
                    </mxGeometry>
                </mxCell>
                <mxCell id="11" value="Postuler pour une campagne" style="ellipse;whiteSpace=wrap;html=1;strokeColor=#000000;fontColor=#000000;fillColor=#1BA2E3;" parent="1" vertex="1">
                    <mxGeometry x="248" y="296.5" width="127" height="47" as="geometry"/>
                </mxCell>
                <mxCell id="12" value="S'authentifier" style="ellipse;whiteSpace=wrap;html=1;strokeColor=#000000;fontColor=#000000;fillColor=#1BA2E3;" parent="1" vertex="1">
                    <mxGeometry x="577" y="299.25" width="122" height="41.5" as="geometry"/>
                </mxCell>
                <mxCell id="13" value="&amp;lt;&amp;lt;Include&amp;gt;&amp;gt;" style="endArrow=open;endSize=12;dashed=1;html=1;strokeColor=#000000;fontColor=#000000;labelBackgroundColor=#1BA2E3;strokeWidth=1;" parent="1" edge="1">
                    <mxGeometry width="160" relative="1" as="geometry">
                        <mxPoint x="375" y="319" as="sourcePoint"/>
                        <mxPoint x="579" y="321" as="targetPoint"/>
                        <Array as="points">
                            <mxPoint x="420" y="319"/>
                            <mxPoint x="533" y="321"/>
                        </Array>
                    </mxGeometry>
                </mxCell>
                <mxCell id="14" value="&lt;font color=&quot;#000000&quot;&gt;Lire et accepter les conditions&lt;/font&gt;" style="ellipse;whiteSpace=wrap;html=1;fillColor=#1BA2E3;strokeColor=#000000;" vertex="1" parent="1">
                    <mxGeometry x="417" y="384" width="173" height="54" as="geometry"/>
                </mxCell>
                <mxCell id="17" value="&amp;lt;&amp;lt;Include&amp;gt;&amp;gt;" style="endArrow=open;endSize=12;dashed=1;html=1;strokeColor=#000000;fontColor=#000000;labelBackgroundColor=#1BA2E3;strokeWidth=1;exitX=0.5;exitY=1;exitDx=0;exitDy=0;" edge="1" parent="1" source="11">
                    <mxGeometry x="0.1866" y="-1" width="160" relative="1" as="geometry">
                        <mxPoint x="216" y="410" as="sourcePoint"/>
                        <mxPoint x="420" y="412" as="targetPoint"/>
                        <Array as="points">
                            <mxPoint x="312" y="410"/>
                            <mxPoint x="374" y="412"/>
                        </Array>
                        <mxPoint as="offset"/>
                    </mxGeometry>
                </mxCell>
            </root>
        </mxGraphModel>
    </diagram>
</mxfile>